<svg version="1.2" xmlns="http://www.w3.org/2000/svg" viewBox="0 0 115 109" width="115" height="109">
	<title>logo-svg</title>
	<defs>
		<linearGradient id="g1" x1="57.5" y1="0" x2="57.5" y2="108.6" gradientUnits="userSpaceOnUse">
			<stop offset="0" stop-color="#9a23e6"/>
			<stop offset="1" stop-color="#5519ee"/>
		</linearGradient>
	</defs>
	<style>
		tspan { white-space:pre } 
		.s0 { fill: url(#g1) } 
		.s1 { fill: #9923e6 } 
		.s2 { fill: #621bec } 
		.t3 { font-size: 19px;fill: #9923e6;font-weight: 400;font-family: "DelaGothicOne-Regular", "Dela Gothic One" } 
	</style>
	<g id="Layer">
		<g id="Layer">
			<path id="Layer" fill-rule="evenodd" class="s0" d="m84.5 108.7h-47.3c-4.7 0-9.1-2.6-11.5-6.8l-23.9-40.9c-2.4-4.1-2.4-9.2 0-13l23.9-41.5c2.4-4.1 6.5-6.5 11.2-6.5h47.6c4.8 0 9.5 2.7 11.9 6.8l17.1 29.7c0.3 0.3 0.3 0.9 0 1.2 0 0.3-0.3 0.6-0.6 0.9l-5.9 3.2c-6.2 3.6-14.2 1.5-17.7-4.7l-9.5-16.2h-19.8v66.9h19.8l9.8-16.8-16.3-9.4c-3.3-1.8-5.3-5.3-5.3-9.2v-15.9c0-0.6 0.3-0.9 0.6-1.1 0.6-0.3 0.9-0.3 1.4 0l39.4 22.3c2.6 1.5 4.4 3.9 5 6.5 0.6 2.7 0.3 5.6-1.2 8.3l-17.1 29.4c-2.1 4.2-6.5 6.8-11.6 6.8zm0-2.9c3.9 0 7.4-2.1 9.5-5.3l17.1-29.5c1.2-1.8 1.5-3.8 0.9-5.9-0.6-2.1-1.8-3.8-3.5-4.7l-8-4.4-29-16.8v13.2c0 2.7 1.5 5.3 3.9 6.8l17.4 10c0.6 0.3 0.9 1.2 0.6 2.1l-10.9 18.8c-0.3 0.6-0.9 0.6-1.2 0.6h-22.2c-0.9 0-1.5-0.6-1.5-1.4v-69.9c0-0.8 0.6-1.4 1.5-1.4h22.2c0.6 0 0.9 0.3 1.2 0.6l9.7 16.8c2.7 4.7 8.9 6.4 13.9 3.8l4.7-2.7-16.5-28.3c-2.4-3.2-5.9-5.3-9.8-5.3h-47.6c-3.5 0-6.8 1.8-8.5 5.1l-24 41.5c-1.7 3.2-1.7 7.1 0 10l24 41c1.7 3.2 5 5.3 8.8 5.3zm-44-15.1c-0.6 0-0.9-0.3-1.2-0.6l-20.4-34.7q-0.4-0.9 0-1.8l20.4-34.7c0.3-0.6 0.9-0.9 1.8-0.6 0.6 0.3 1.2 0.8 1.2 1.4v69.9c0 0.5-0.6 1.1-1.2 1.4-0.3-0.3-0.6-0.3-0.6-0.3zm-18.6-36.5l17.1 29.5v-58.7z"/>
		</g>
		<g id="Layer">
			<path id="Layer" fill-rule="evenodd" class="s1" d="m216.9 36.5v-4.7h13.6v44.5q0 11-7.1 16.8c-4.7 3.8-10.6 5.6-17.4 5.6-10.6 0-18-3.8-22.2-11.2l12.2-7.1c2 3.9 5.9 5.9 10.6 5.9q4.9 0 8-2.6c1.8-1.8 2.6-4.2 2.6-7.4v-4.4c-3.2 4.1-7.9 6.2-13.6 6.2-6.5 0-12.1-2.4-16.5-7.1-4.4-4.7-6.5-10.3-6.5-16.8 0-6.5 2.1-12.1 6.5-16.8 4.4-4.7 9.7-7.1 16.5-7.1q8.5 0 13.3 6.2zm-19.5 25.4c2.1 2 5.1 2.9 8.3 2.9 3.3 0 5.9-0.9 8.3-2.9 2.1-2.1 3.2-4.5 3.2-8 0-3.2-1.1-5.9-3.2-7.9-2.1-2.1-5-3-8.3-3-3.2 0-5.9 0.9-8.3 3-2 2-3.2 4.4-3.2 7.9 0 3.5 1.2 6.2 3.2 8z"/>
			<path id="Layer" class="s2" d="m255.1 31.5v8.3c0.9-3 2.6-5.3 5.3-6.8 2.7-1.8 5.6-2.4 8.9-2.4v15.9q-5.4-0.8-9.8 1.8-4.4 2.7-4.4 8.9v21.2h-14.2v-46.9z"/>
			<path id="Layer" fill-rule="evenodd" class="s2" d="m308.6 35.9v-4.4h14.2v46.9h-14.2v-4.5c-3.3 3.9-8 5.6-13.9 5.6q-9.3 0-16-7c-4.4-4.7-6.5-10.6-6.5-17.7 0-7.1 2.1-12.7 6.5-17.4q6.7-7.1 16-7.1c5.9 0 10.6 1.8 13.9 5.6zm-22.5 19.2c0 3.5 0.9 6.2 3 8.2 2 2.1 4.7 3 7.9 3 3.3 0 6-0.9 8-3 2.1-2 3-4.7 3-8.2 0-3.5-0.9-6.2-3-8.3-2-2-4.7-2.9-8-2.9-3.2 0-5.9 0.9-7.9 2.9-1.8 2.1-3 4.8-3 8.3z"/>
			<path id="Layer" fill-rule="evenodd" class="s2" d="m361.2 30.3q9.3 0 15.9 7.1c4.5 4.7 6.5 10.6 6.5 17.4 0 7.1-2 13-6.5 17.7q-6.6 7-15.9 7c-6.2 0-10.7-1.7-13.9-5.6v23.3h-14.2v-65.7h14.2v4.4c2.9-3.8 7.7-5.6 13.9-5.6zm-11 33c2.1 2.1 4.8 3 8 3 3.3 0 5.9-0.9 8-3 2.1-2 3.3-4.7 3.3-8.2 0-3.5-1.2-6.2-3.3-8.3-2.1-2-4.7-2.9-8-2.9-3.2 0-5.9 0.9-8 2.9-2 2.1-2.9 4.8-2.9 8.3-0.3 3.5 0.9 6.2 2.9 8.2z"/>
			<path id="Layer" class="s2" d="m419.1 30.3c5 0 9.2 1.8 12.4 5.1 3.3 3.5 5.1 8.2 5.1 14.1v28.9h-13.9v-26.8c0-2.7-0.9-4.8-2.4-6.2-1.5-1.5-3.6-2.4-5.9-2.4-2.7 0-5 0.9-6.5 2.4-1.5 1.7-2.4 4.1-2.4 7v25.7h-14.2v-65.1h14.2v23.2c3-4.1 7.4-5.9 13.6-5.9z"/>
			<path id="Layer" class="s1" d="m446.3 10h14.2v68.4h-14.2z"/>
			<path id="Layer" class="s2" d="m470.8 31.5h14.2v46.9h-14.2z"/>
			<path id="Layer" class="s2" d="m522.9 30.3c5 0 9.1 1.8 12.4 5.1 3.2 3.5 5 8.2 5 14.1v28.9h-14.2v-26.8c0-2.7-0.9-4.8-2.4-6.2-1.4-1.5-3.5-2.4-5.9-2.4-2.6 0-5 0.9-6.5 2.4-1.4 1.7-2.3 4.1-2.3 7v25.7h-14.2v-46.6h14.2v4.4c3.2-3.8 7.7-5.6 13.9-5.6z"/>
			<path id="Layer" fill-rule="evenodd" class="s1" d="m584 35.9v-4.4h14.2v65.7h-14.2v-23.3c-3.2 3.9-7.9 5.6-13.9 5.6q-9.3 0-15.9-7c-4.4-4.7-6.5-10.6-6.5-17.7 0-7.1 2.1-12.7 6.5-17.4q6.6-7.1 15.9-7.1c6.3 0 10.7 1.8 13.9 5.6zm-22.1 19.2c0 3.5 0.9 6.2 2.9 8.2 2.1 2.1 4.8 3 8 3 3.3 0 5.9-0.9 8-3 2.1-2 2.9-4.7 2.9-8.2 0-3.5-0.8-6.2-2.9-8.3-2.1-2-4.7-2.9-8-2.9-3.2 0-5.9 0.9-8 2.9-2 2.1-2.9 4.8-2.9 8.3z"/>
		</g>
		<text id="Beta Testing" style="transform: matrix(1,0,0,1,424.867,97.867)" >
			<tspan x="0" y="0" class="t3">B</tspan><tspan  y="0" class="t3">e</tspan><tspan  y="0" class="t3">t</tspan><tspan  y="0" class="t3">a</tspan><tspan  y="0" class="t3"> </tspan><tspan  y="0" class="t3">T</tspan><tspan  y="0" class="t3">e</tspan><tspan  y="0" class="t3">s</tspan><tspan  y="0" class="t3">t</tspan><tspan  y="0" class="t3">i</tspan><tspan  y="0" class="t3">n</tspan><tspan  y="0" class="t3">g
</tspan>
		</text>
	</g>
</svg>