<svg version="1.2" xmlns="http://www.w3.org/2000/svg" viewBox="0 0 32 30" width="32" height="30">
	<title>logo-svg</title>
	<defs>
		<linearGradient id="g1" x1="16" y1="0" x2="16" y2="29.9" gradientUnits="userSpaceOnUse">
			<stop offset="0" stop-color="#9a23e6"/>
			<stop offset="1" stop-color="#5519ee"/>
		</linearGradient>
	</defs>
	<style>
		tspan { white-space:pre } 
		.s0 { fill: url(#g1) } 
		.s1 { fill: #9923e6 } 
		.s2 { fill: #621bec } 
		.t3 { font-size: 19px;fill: #9923e6;font-weight: 400;font-family: "DelaGothicOne-Regular", "Dela Gothic One" } 
	</style>
	<g id="Layer">
		<g id="Layer">
			<path id="Layer" fill-rule="evenodd" class="s0" d="m23.5 29.9h-13.1c-1.4 0-2.6-0.7-3.2-1.8l-6.7-11.3c-0.7-1.2-0.7-2.5 0-3.6l6.7-11.4c0.6-1.2 1.8-1.8 3.1-1.8h13.2c1.3 0 2.7 0.7 3.3 1.9l4.8 8.2c0.1 0 0.1 0.2 0 0.3 0 0.1-0.1 0.1-0.2 0.2l-1.6 0.9c-1.8 1-4 0.4-5-1.3l-2.6-4.4h-5.5v18.4h5.5l2.7-4.7-4.5-2.6c-0.9-0.4-1.5-1.4-1.5-2.5v-4.3c0-0.2 0.1-0.3 0.2-0.4 0.1-0.1 0.2-0.1 0.4 0l10.9 6.2c0.8 0.4 1.3 1 1.4 1.8 0.2 0.7 0.1 1.5-0.3 2.2l-4.8 8.2c-0.5 1.1-1.8 1.8-3.2 1.8zm0-0.8c1.1 0 2.1-0.6 2.7-1.5l4.7-8.1c0.4-0.4 0.4-1 0.3-1.6-0.2-0.5-0.5-1-1-1.3l-2.2-1.2-8.1-4.6v3.6c0 0.8 0.4 1.5 1.1 1.9l4.8 2.8c0.2 0 0.3 0.3 0.2 0.5l-3.1 5.2c0 0.2-0.2 0.2-0.3 0.2h-6.2c-0.2 0-0.4-0.2-0.4-0.4v-19.2c0-0.3 0.2-0.5 0.4-0.5h6.2c0.2 0 0.3 0.1 0.3 0.2l2.8 4.6c0.7 1.3 2.4 1.8 3.8 1.1l1.3-0.7-4.6-7.8c-0.6-0.9-1.6-1.5-2.7-1.5h-13.2c-1 0-1.9 0.5-2.4 1.4l-6.7 11.4c-0.5 0.9-0.5 2 0 2.8l6.7 11.2c0.5 0.9 1.4 1.5 2.5 1.5zm-12.3-4.1c-0.2 0-0.2-0.1-0.3-0.2l-5.7-9.6q-0.1-0.2 0-0.4l5.7-9.6c0.1-0.2 0.2-0.3 0.5-0.2 0.1 0.1 0.3 0.3 0.3 0.4v19.2c0 0.2-0.2 0.4-0.3 0.5-0.1-0.1-0.2-0.1-0.2-0.1zm-5.2-10.1l4.8 8.1v-16.1z"/>
		</g>
		<g id="Layer">
			<path id="Layer" fill-rule="evenodd" class="s1" d="m60.4 10.1v-1.3h3.8v12.2q0 3-2 4.6c-1.3 1.1-3 1.6-4.9 1.6-2.9 0-5-1.1-6.1-3.1l3.3-2c0.6 1.1 1.7 1.7 3 1.7q1.3 0 2.2-0.8c0.5-0.5 0.7-1.1 0.7-2v-1.2c-0.9 1.1-2.2 1.7-3.7 1.7-1.8 0-3.4-0.7-4.6-2-1.3-1.3-1.8-2.8-1.8-4.6 0-1.8 0.5-3.3 1.8-4.6 1.2-1.3 2.7-1.9 4.6-1.9q2.3 0 3.7 1.7zm-5.5 6.9c0.6 0.6 1.4 0.8 2.3 0.8 0.9 0 1.7-0.2 2.3-0.8 0.6-0.5 0.9-1.2 0.9-2.2 0-0.9-0.3-1.6-0.9-2.2-0.5-0.5-1.4-0.8-2.3-0.8-0.9 0-1.6 0.3-2.3 0.8-0.5 0.6-0.9 1.3-0.9 2.2 0 1 0.4 1.7 0.9 2.2z"/>
			<path id="Layer" class="s2" d="m71 8.7v2.2c0.2-0.8 0.7-1.4 1.5-1.8 0.7-0.5 1.5-0.7 2.4-0.7v4.4q-1.5-0.2-2.7 0.5-1.2 0.7-1.2 2.4v5.9h-4v-12.9z"/>
			<path id="Layer" fill-rule="evenodd" class="s2" d="m85.9 9.9v-1.2h3.9v12.9h-3.9v-1.2c-0.9 1-2.3 1.5-3.9 1.5q-2.6 0-4.4-2c-1.3-1.3-1.9-2.9-1.9-4.8 0-2 0.6-3.5 1.9-4.8q1.8-1.9 4.4-1.9c1.6 0 3 0.4 3.9 1.5zm-6.3 5.3c0 0.9 0.3 1.7 0.8 2.2 0.6 0.6 1.4 0.8 2.3 0.8 0.9 0 1.6-0.2 2.2-0.8 0.6-0.5 0.8-1.3 0.8-2.2 0-1-0.2-1.7-0.8-2.3-0.6-0.6-1.3-0.8-2.2-0.8-0.9 0-1.7 0.2-2.3 0.8-0.5 0.6-0.8 1.3-0.8 2.3z"/>
			<path id="Layer" fill-rule="evenodd" class="s2" d="m100.5 8.4q2.6 0 4.4 1.9c1.3 1.3 1.9 2.9 1.9 4.8 0 1.9-0.6 3.5-1.9 4.8q-1.8 2-4.4 2c-1.7 0-3-0.5-3.9-1.5v6.4h-3.9v-18.1h3.9v1.2c0.9-1.1 2.2-1.5 3.9-1.5zm-3 9c0.5 0.6 1.3 0.8 2.2 0.8 0.9 0 1.6-0.2 2.2-0.8 0.6-0.5 0.9-1.3 0.9-2.2 0-1-0.3-1.7-0.9-2.3-0.6-0.6-1.3-0.8-2.2-0.8-0.9 0-1.7 0.2-2.2 0.8-0.6 0.6-0.9 1.3-0.9 2.3 0 0.9 0.3 1.7 0.9 2.2z"/>
			<path id="Layer" class="s2" d="m116.6 8.4c1.4 0 2.6 0.4 3.5 1.3 0.9 1 1.4 2.3 1.4 3.9v8h-3.9v-7.4c0-0.7-0.2-1.3-0.6-1.7-0.5-0.4-1-0.7-1.7-0.7-0.7 0-1.4 0.3-1.8 0.7-0.4 0.5-0.7 1.1-0.7 1.9v7.1h-3.9v-17.9h3.9v6.4c0.9-1.2 2.1-1.6 3.8-1.6z"/>
			<path id="Layer" class="s1" d="m124.2 2.8h3.9v18.8h-3.9z"/>
			<path id="Layer" class="s2" d="m131 8.7h4v12.9h-4z"/>
			<path id="Layer" class="s2" d="m145.5 8.4c1.4 0 2.5 0.4 3.4 1.3 0.9 1 1.4 2.3 1.4 3.9v8h-3.9v-7.4c0-0.7-0.3-1.3-0.7-1.7-0.4-0.4-0.9-0.7-1.6-0.7-0.7 0-1.4 0.3-1.8 0.7-0.4 0.5-0.7 1.1-0.7 1.9v7.1h-3.9v-12.8h3.9v1.2c0.9-1.1 2.2-1.5 3.9-1.5z"/>
			<path id="Layer" fill-rule="evenodd" class="s1" d="m162.5 9.9v-1.2h4v18.1h-4v-6.4c-0.9 1-2.2 1.5-3.9 1.5q-2.5 0-4.4-2c-1.2-1.3-1.8-2.9-1.8-4.8 0-2 0.6-3.5 1.8-4.8q1.9-1.9 4.4-1.9c1.8 0 3 0.4 3.9 1.5zm-6.2 5.3c0 0.9 0.3 1.7 0.9 2.2 0.5 0.6 1.3 0.8 2.2 0.8 0.9 0 1.6-0.2 2.2-0.8 0.6-0.5 0.8-1.3 0.8-2.2 0-1-0.2-1.7-0.8-2.3-0.6-0.6-1.3-0.8-2.2-0.8-0.9 0-1.7 0.2-2.2 0.8-0.6 0.6-0.9 1.3-0.9 2.3z"/>
		</g>
		<text id="Beta Testing" style="transform: matrix(.278,0,0,.275,118.224,26.936)" >
			<tspan x="0" y="0" class="t3">B</tspan><tspan  y="0" class="t3">e</tspan><tspan  y="0" class="t3">t</tspan><tspan  y="0" class="t3">a</tspan><tspan  y="0" class="t3"> </tspan><tspan  y="0" class="t3">T</tspan><tspan  y="0" class="t3">e</tspan><tspan  y="0" class="t3">s</tspan><tspan  y="0" class="t3">t</tspan><tspan  y="0" class="t3">i</tspan><tspan  y="0" class="t3">n</tspan><tspan  y="0" class="t3">g
</tspan>
		</text>
	</g>
</svg>